<?xml version="1.0" encoding="UTF-8" standalone="no"?>
<!DOCTYPE svg PUBLIC "-//W3C//DTD SVG 1.1//EN"
 "http://www.w3.org/Graphics/SVG/1.1/DTD/svg11.dtd">
<!-- Generated by graphviz version 2.43.0 (0)
 -->
<!-- Title: G Pages: 1 -->
<svg width="645pt" height="140pt"
 viewBox="0.00 0.00 645.00 140.00" xmlns="http://www.w3.org/2000/svg" xmlns:xlink="http://www.w3.org/1999/xlink">
<g id="graph0" class="graph" transform="scale(1 1) rotate(0) translate(18 122)">
<title>G</title>
<polygon fill="#050b16" stroke="transparent" points="-18,18 -18,-122 627,-122 627,18 -18,18"/>
<!-- SUB1 -->
<g id="node1" class="node">
<title>SUB1</title>
<defs>
<linearGradient id="l_0" gradientUnits="userSpaceOnUse" x1="115" y1="-68" x2="115" y2="-104" >
<stop offset="0" style="stop-color:#18345d;stop-opacity:1.;"/>
<stop offset="1" style="stop-color:#10233c;stop-opacity:1.;"/>
</linearGradient>
</defs>
<path fill="url(#l_0)" stroke="#60a5fa" stroke-width="1.7" d="M208,-104C208,-104 22,-104 22,-104 16,-104 10,-98 10,-92 10,-92 10,-80 10,-80 10,-74 16,-68 22,-68 22,-68 208,-68 208,-68 214,-68 220,-74 220,-80 220,-80 220,-92 220,-92 220,-98 214,-104 208,-104"/>
<text text-anchor="middle" x="115" y="-89.4" font-family="Helvetica,sans-Serif" font-size="12.00" fill="#e2e8f0">☸ K8S Workloads</text>
<text text-anchor="middle" x="115" y="-76.4" font-family="Helvetica,sans-Serif" font-size="12.00" fill="#e2e8f0">Spark / Ray / Kafka / SkyPilot API</text>
</g>
<!-- PROM -->
<g id="node3" class="node">
<title>PROM</title>
<defs>
<linearGradient id="l_1" gradientUnits="userSpaceOnUse" x1="341.5" y1="-34" x2="341.5" y2="-70" >
<stop offset="0" style="stop-color:#1f3550;stop-opacity:1.;"/>
<stop offset="1" style="stop-color:#142235;stop-opacity:1.;"/>
</linearGradient>
</defs>
<path fill="url(#l_1)" stroke="#06b6d4" stroke-width="1.7" d="M398,-70C398,-70 285,-70 285,-70 279,-70 273,-64 273,-58 273,-58 273,-46 273,-46 273,-40 279,-34 285,-34 285,-34 398,-34 398,-34 404,-34 410,-40 410,-46 410,-46 410,-58 410,-58 410,-64 404,-70 398,-70"/>
<text text-anchor="middle" x="341.5" y="-48.9" font-family="Helvetica,sans-Serif" font-size="12.00" fill="#e2e8f0">[PROM] Prometheus</text>
</g>
<!-- SUB1&#45;&gt;PROM -->
<g id="edge1" class="edge">
<title>SUB1&#45;&gt;PROM</title>
<path fill="none" stroke="#22d3ee" stroke-width="1.2" d="M220.19,-87C279.57,-87 342,-87 342,-87 342,-87 342,-77.82 342,-77.82"/>
<polygon fill="#22d3ee" stroke="#22d3ee" stroke-width="1.2" points="344.63,-77.82 342,-70.32 339.38,-77.82 344.63,-77.82"/>
</g>
<!-- SUB2 -->
<g id="node2" class="node">
<title>SUB2</title>
<defs>
<linearGradient id="l_2" gradientUnits="userSpaceOnUse" x1="115" y1="0" x2="115" y2="-36" >
<stop offset="0" style="stop-color:#3a2758;stop-opacity:1.;"/>
<stop offset="1" style="stop-color:#241839;stop-opacity:1.;"/>
</linearGradient>
</defs>
<path fill="url(#l_2)" stroke="#c084fc" stroke-width="1.7" d="M218,-36C218,-36 12,-36 12,-36 6,-36 0,-30 0,-24 0,-24 0,-12 0,-12 0,-6 6,0 12,0 12,0 218,0 218,0 224,0 230,-6 230,-12 230,-12 230,-24 230,-24 230,-30 224,-36 218,-36"/>
<text text-anchor="middle" x="115" y="-21.4" font-family="Helvetica,sans-Serif" font-size="12.00" fill="#e2e8f0">☁ CLOUD External SkyPilot Workers</text>
<text text-anchor="middle" x="115" y="-8.4" font-family="Helvetica,sans-Serif" font-size="12.00" fill="#e2e8f0">remote_write path</text>
</g>
<!-- SUB2&#45;&gt;PROM -->
<g id="edge2" class="edge">
<title>SUB2&#45;&gt;PROM</title>
<path fill="none" stroke="#22d3ee" stroke-width="1.2" d="M225,-36.19C225,-44.28 225,-52 225,-52 225,-52 265.22,-52 265.22,-52"/>
<polygon fill="#22d3ee" stroke="#22d3ee" stroke-width="1.2" points="265.22,-54.63 272.72,-52 265.22,-49.38 265.22,-54.63"/>
</g>
<!-- GRAF -->
<g id="node4" class="node">
<title>GRAF</title>
<defs>
<linearGradient id="l_3" gradientUnits="userSpaceOnUse" x1="531" y1="-34" x2="531" y2="-70" >
<stop offset="0" style="stop-color:#1f3550;stop-opacity:1.;"/>
<stop offset="1" style="stop-color:#142235;stop-opacity:1.;"/>
</linearGradient>
</defs>
<path fill="url(#l_3)" stroke="#06b6d4" stroke-width="1.7" d="M597,-70C597,-70 465,-70 465,-70 459,-70 453,-64 453,-58 453,-58 453,-46 453,-46 453,-40 459,-34 465,-34 465,-34 597,-34 597,-34 603,-34 609,-40 609,-46 609,-46 609,-58 609,-58 609,-64 603,-70 597,-70"/>
<text text-anchor="middle" x="531" y="-48.9" font-family="Helvetica,sans-Serif" font-size="12.00" fill="#e2e8f0">[GRAFANA] Dashboards</text>
</g>
<!-- PROM&#45;&gt;GRAF -->
<g id="edge3" class="edge">
<title>PROM&#45;&gt;GRAF</title>
<path fill="none" stroke="#22d3ee" stroke-width="1.2" d="M410.18,-52C410.18,-52 445.41,-52 445.41,-52"/>
<polygon fill="#22d3ee" stroke="#22d3ee" stroke-width="1.2" points="445.41,-54.63 452.91,-52 445.41,-49.38 445.41,-54.63"/>
</g>
</g>
</svg>
